<svg xmlns="http://www.w3.org/2000/svg" width="242" height="55" fill="none" viewBox="0 0 242 55"><rect width="53.673" height="53.673" y=".611" fill="#06F" rx="2.904"/><path fill="#fff" d="M11.6031 10.131C11.6031 9.35124 12.2352 8.71912 13.015 8.71912L17.354 8.71912C18.1338 8.71912 18.7659 9.35124 18.7659 10.131V44.9123C18.7659 45.6921 18.1338 46.3242 17.3541 46.3242H13.015C12.2352 46.3242 11.6031 45.6921 11.6031 44.9123L11.6031 10.131Z"/><path fill="#fff" d="M21.9685 31.1031C21.1888 31.1031 20.5566 30.471 20.5566 29.6912V25.3521C20.5566 24.5724 21.1888 23.9403 21.9685 23.9403H47.7963C48.576 23.9403 49.2081 24.5724 49.2081 25.3521V29.6912C49.2081 30.471 48.576 31.1031 47.7963 31.1031H21.9685Z"/><path fill="#fff" d="M30.0475 10.131C30.0475 9.35127 30.6796 8.71914 31.4594 8.71914L35.7985 8.71914C36.5782 8.71914 37.2103 9.35126 37.2103 10.131V20.7376C37.2103 21.5174 36.5782 22.1495 35.7985 22.1495H31.4594C30.6796 22.1495 30.0475 21.5174 30.0475 20.7376V10.131Z"/><path fill="#fff" d="M30.0475 34.3058C30.0475 33.526 30.6796 32.8939 31.4594 32.8939H35.7985C36.5782 32.8939 37.2103 33.526 37.2103 34.3058V44.9124C37.2103 45.6921 36.5782 46.3243 35.7985 46.3243H31.4594C30.6796 46.3243 30.0475 45.6921 30.0475 44.9124V34.3058Z"/><path fill="#2F2F2F" d="M67.7977 43.4929H73.8573V28.7901H90.3451V43.4929H96.3812V9.60132H90.3451V23.6935H73.8573V9.60132H67.7977L67.7977 43.4929Z"/><path fill="#2F2F2F" d="M112.728 43.9861C119.234 43.9861 122.898 40.1343 123.673 36.3059L123.743 36.0476H118.271L118.224 36.212C117.66 37.8795 115.758 39.4297 112.846 39.4297C109.041 39.4297 106.645 36.8461 106.551 32.4776H123.978V30.5986C123.978 23.0828 119.563 18.0801 112.446 18.0801C105.33 18.0801 100.75 23.2472 100.75 31.0918V31.1153C100.75 39.0304 105.259 43.9861 112.728 43.9861ZM112.517 22.66C115.617 22.66 117.872 24.6329 118.294 28.5787H106.622C107.091 24.7504 109.416 22.66 112.517 22.66Z"/><path fill="#2F2F2F" d="M130.86 15.0268C132.692 15.0268 134.101 13.5706 134.101 11.8326C134.101 10.0476 132.692 8.61487 130.86 8.61487C129.028 8.61487 127.595 10.0476 127.595 11.8326C127.595 13.5706 129.028 15.0268 130.86 15.0268ZM127.924 43.4929H133.772V18.5968H127.924V43.4929Z"/><path fill="#2F2F2F" d="M138.752 51.7133H144.6V39.2888H144.717C146.126 42.2011 148.968 43.9861 152.515 43.9861C158.762 43.9861 162.755 39.0539 162.755 31.0683V31.0449C162.755 23.0123 158.762 18.0801 152.444 18.0801C148.874 18.0801 146.15 19.9121 144.717 22.8949H144.6V18.5968H138.752V51.7133ZM150.706 39.0539C147.089 39.0539 144.553 35.9301 144.553 31.0683V31.0449C144.553 26.1596 147.089 23.0123 150.706 23.0123C154.441 23.0123 156.79 26.0656 156.79 31.0449V31.0683C156.79 35.9771 154.441 39.0539 150.706 39.0539Z"/><path fill="#2F2F2F" d="M166.678 43.4929H172.526V29.1424C172.526 25.5254 174.687 23.0123 177.998 23.0123C181.357 23.0123 183.283 25.3141 183.283 29.1424V43.4929H189.131V27.9916C189.131 21.9789 185.702 18.0801 180.347 18.0801C176.612 18.0801 173.958 19.7946 172.667 22.7775H172.526V9.60132H166.678V43.4929Z"/><path fill="#2F2F2F" d="M204.797 43.9861C211.303 43.9861 214.967 40.1343 215.742 36.3059L215.812 36.0476H210.34L210.293 36.212C209.729 37.8795 207.827 39.4297 204.914 39.4297C201.109 39.4297 198.714 36.8461 198.62 32.4776H216.047V30.5986C216.047 23.0828 211.631 18.0801 204.515 18.0801C197.398 18.0801 192.818 23.2472 192.818 31.0918V31.1153C192.818 39.0304 197.328 43.9861 204.797 43.9861ZM204.585 22.66C207.686 22.66 209.94 24.6329 210.363 28.5787H198.69C199.16 24.7504 201.485 22.66 204.585 22.66Z"/><path fill="#2F2F2F" d="M219.828 43.4929H225.677V29.0485C225.677 25.455 227.814 23.0123 231.173 23.0123C234.508 23.0123 236.152 25.0087 236.152 28.5552V43.4929H242V27.3809C242 21.6031 238.876 18.0801 233.404 18.0801C229.622 18.0801 227.086 19.8181 225.794 22.4956H225.677V18.5968H219.828V43.4929Z"/></svg>