<svg xmlns="http://www.w3.org/2000/svg" width="1171.8" height="398.526" viewBox="0 0 310.039 105.443"><path fill="#fff" d="M13.861 23.917h282.315V78.93H13.861z"/><path d="M12.06 51.194v-26.77l8.802-4.456c4.842-2.45 10.094-5.13 11.671-5.954l2.869-1.498V66.01l-9.99 5.05c-5.495 2.777-10.747 5.466-11.671 5.976l-1.682.928zM274.636 89.137v-4.38l7.898.006 7.897.006-2.799 1.575c-1.54.867-5.093 2.836-7.897 4.375l-5.099 2.8z" fill="#27aae1"/><path d="M268.81 93.764v-9.007H7.859v-64.39l16.728-8.847 16.73-8.847.045 8.82.046 8.82H302.18l-.044 32.429-.045 32.429-14.301 7.567c-7.866 4.162-15.354 8.122-16.64 8.8l-2.34 1.233zm13.55-4.877c4.151-2.196 7.582-4.023 7.622-4.061.04-.038-3.396-.07-7.636-.07h-7.71v4.061c0 2.234.04 4.061.087 4.061.048 0 3.485-1.796 7.637-3.991zm13.816-36.352V26.14H41.406L41.36 46.63l-.045 20.491-10.858 5.74c-5.972 3.157-10.934 5.814-11.026 5.904-.103.101 53.131.164 138.288.164h138.456zM101.37 61.7c-1.176-.373-2.427-1.642-2.868-2.909-.302-.868-.334-1.527-.334-6.875 0-6.875.06-7.23 1.482-8.648 1.16-1.158 2.257-1.473 4.837-1.39 1.745.056 2.1.124 3.007.568 1.168.573 1.87 1.41 2.36 2.818.283.809.32 1.574.32 6.652 0 6.273-.042 6.604-1.018 8.057-.417.621-.854.995-1.618 1.385-.973.496-1.196.536-3.178.574-1.529.03-2.374-.036-2.99-.232zm3.595-3.365c.226-.215.265-1.167.265-6.419 0-5.512-.031-6.198-.293-6.46-.42-.42-1.213-.37-1.594.101-.295.364-.32.867-.32 6.387v5.991l.444.444c.472.472.971.457 1.498-.044zm51.79 3.318c-1.284-.444-2.077-1.11-2.604-2.188-.742-1.52-.842-2.579-.773-8.236.058-4.853.09-5.295.442-6.165.555-1.375 1.16-2.064 2.3-2.624.959-.47 1.151-.5 3.313-.5 2.197 0 2.34.023 3.354.53 1.805.902 2.56 2.527 2.56 5.503v1.295H160.615l-.061-1.76c-.047-1.346-.13-1.828-.354-2.052-.424-.424-1.213-.37-1.6.11-.306.377-.324.79-.276 6.46.054 6.487.042 6.4.953 6.673.239.07.524-.012.794-.23.386-.312.427-.496.483-2.123l.06-1.782h4.785l-.095 1.866c-.083 1.632-.166 2.009-.658 3.009-.624 1.268-1.34 1.863-2.751 2.288-1.203.362-3.994.322-5.14-.074zm-79.51-9.737V42.03H80.564l1.74 4.068 1.74 4.067.047-4.073.048-4.074 1.983.05 1.983.05v19.598l-1.616.05-1.616.05-.805-2.08c-.442-1.145-1.24-3.193-1.772-4.553l-.967-2.472-.011 4.547-.01 4.546h-4.061zm44.627 1.81l-.046-8.078-1.368-.051-1.368-.052V42.03h10.416v3.516l-1.368.052-1.368.051-.046 8.078-.046 8.077h-4.76zm16.815-1.81V42.03H143.454v19.774H138.687zm36.195 0V42.03h9.18v3.354h-4.413V49.622h3.354v3.341l-1.633.05-1.633.052V58.538l2.163.05 2.163.049v3.167H174.882zm18.068 9.156c.058-.423.51-4.702 1.003-9.51.493-4.806.936-8.926.985-9.156l.088-.417 3.037.088c1.67.048 3.353.184 3.74.304 1.464.451 2.384 1.895 2.386 3.744.003 2.538-1.02 4.445-2.632 4.909l-.457.131.53.21c1.696.671 2.414 2.478 2.027 5.1-.363 2.457-1.274 3.916-2.962 4.745-.98.482-1.1.497-4.429.558l-3.421.063zm6.66-1.664c.93-.532 1.43-1.705 1.525-3.572.129-2.56-.568-3.345-3.125-3.52-.777-.054-1.417-.066-1.423-.028-.171 1.04-.77 7.44-.702 7.51.052.055.776.067 1.607.028 1.08-.05 1.685-.17 2.119-.418zm.83-9.542c.828-.602 1.352-1.899 1.36-3.37.006-1.142-.042-1.33-.443-1.73-.377-.378-.714-.482-2.083-.643-.899-.107-1.685-.142-1.748-.08-.091.092-.705 5.123-.742 6.085-.016.407 3.035.188 3.655-.262zm11.38 11.725c.046-.126 1.464-4.58 3.15-9.896l3.067-9.666h2.551l.104.75c.122.884 2.037 18.613 2.037 18.857 0 .092-.553.167-1.228.167h-1.228l-.09-.574c-.048-.315-.151-1.447-.228-2.516l-.14-1.942h-4.039l-.724 2.472-.724 2.472-1.295.052c-1.002.04-1.276 0-1.212-.176zm7.787-6.806c.043-.073-.068-1.8-.246-3.84s-.328-3.98-.332-4.311c-.005-.332-.05-.561-.101-.51-.095.094-2.546 8.415-2.552 8.661-.002.073.707.132 1.575.132s1.614-.06 1.656-.132zm12.49 6.62c.007-.218.465-4.647 1.018-9.842l1.006-9.446 2.91.007c2.31.005 3.102.071 3.828.32 1.805.615 2.696 2.29 2.458 4.618-.236 2.3-.968 3.772-2.229 4.48-.387.218-.704.436-.704.485 0 .138 1.603 8.934 1.71 9.379.091.385.054.397-1.25.397-.805 0-1.343-.073-1.343-.182 0-.178-1.316-7.714-1.518-8.698-.1-.484-.125-.493-1.19-.442l-1.087.053-.475 4.325c-.26 2.38-.48 4.465-.485 4.635-.01.266-.197.309-1.336.309-1.259 0-1.323-.02-1.312-.397zm6.997-11.245c1.041-.473 1.507-1.427 1.596-3.276.092-1.89-.223-2.438-1.574-2.736-.516-.114-1.296-.18-1.733-.148l-.795.06-.297 2.736c-.446 4.1-.538 3.708.871 3.704.788-.003 1.443-.118 1.932-.34zm12.944 11.07c0-.316.438-4.699.971-9.74.534-5.041.97-9.242.97-9.335 0-.25 6.124-.046 6.886.23 1.543.556 2.398 1.71 2.582 3.482.122 1.176-.7 9.65-1.087 11.213-.321 1.294-.855 2.359-1.558 3.106-1.18 1.252-2.606 1.617-6.326 1.617h-2.439l.002-.574zm5.785-1.642c.961-.402 1.427-.921 1.725-1.924.146-.49.515-3.24.82-6.108.501-4.72.53-5.29.305-5.995-.173-.539-.418-.878-.795-1.096-.66-.383-3.138-.642-3.32-.347-.1.162-1.696 14.748-1.696 15.5 0 .346 2.114.323 2.96-.03zM26.265 68.335l9.137-4.832V12.516l-1.457.774c-.801.426-5.648 2.991-10.77 5.7l-9.313 4.926v50.985l1.633-.868c.898-.477 5.744-3.041 10.77-5.698zm70.727 33.376c-.907-.275-1.572-.799-1.918-1.513-.31-.643-.35-1.095-.35-4.11v-3.386h.883v3.183c0 3.375.115 3.994.866 4.663.533.475 2.237.591 2.987.203.99-.511 1.091-.947 1.091-4.686v-3.363h1.06v2.904c0 3.53-.178 4.5-.969 5.29-.832.833-2.418 1.187-3.65.815zm9.449.014a3.85 3.85 0 01-2.31-1.747c-.401-.685-.488-1.07-.547-2.422-.06-1.373-.013-1.742.324-2.526.505-1.173 1.327-1.89 2.587-2.256 1.027-.299 2.375-.257 3.322.103.4.152.433.222.26.546-.147.275-.297.34-.58.252-.647-.203-2.196-.316-2.674-.195-.75.187-1.833 1.297-2.048 2.097-.521 1.936-.022 4.113 1.132 4.936.491.35.766.397 2.28.388 1.508-.01 1.722.027 1.722.29a.471.471 0 01-.28.408c-.494.19-2.616.274-3.188.126zm26.66 0a3.858 3.858 0 01-2.316-1.756c-.448-.762-.484-.966-.484-2.765 0-1.805.035-2.001.49-2.776.743-1.264 1.794-1.81 3.482-1.81 1.69 0 2.74.546 3.483 1.81.455.775.49.97.49 2.776 0 1.805-.035 2-.49 2.776-.641 1.09-1.67 1.699-3.056 1.806-.574.045-1.294.017-1.6-.061zm2.763-1.122c.858-.584 1.21-1.157 1.423-2.314.316-1.725-.05-3.27-.99-4.182-.558-.54-.737-.606-1.807-.665-1.019-.055-1.273-.006-1.79.348-.893.612-1.237 1.179-1.428 2.352-.472 2.902.737 4.858 3.001 4.858.754 0 1.154-.1 1.591-.397zm34.49 1.122a3.858 3.858 0 01-2.316-1.756c-.448-.762-.484-.966-.484-2.765 0-1.805.035-2.001.49-2.776.744-1.264 1.794-1.81 3.483-1.81s2.74.546 3.482 1.81c.456.775.49.97.49 2.776 0 1.805-.034 2-.49 2.776-.64 1.09-1.67 1.699-3.056 1.806-.574.045-1.294.017-1.599-.061zm2.764-1.122c.858-.584 1.21-1.157 1.422-2.314.317-1.725-.05-3.27-.99-4.182-.557-.54-.737-.606-1.806-.665-1.02-.055-1.274-.006-1.79.348-.893.612-1.237 1.179-1.428 2.352-.472 2.902.736 4.858 3.001 4.858.754 0 1.154-.1 1.59-.397zm22.484 1.122a3.858 3.858 0 01-2.316-1.756c-.448-.762-.484-.966-.484-2.765 0-1.805.035-2.001.49-2.776.743-1.264 1.794-1.81 3.483-1.81 1.688 0 2.74.546 3.482 1.81.456.775.49.97.49 2.776 0 1.805-.034 2-.49 2.776-.641 1.09-1.67 1.699-3.056 1.806-.574.045-1.294.017-1.599-.061zm2.763-1.122c.859-.584 1.21-1.157 1.423-2.314.316-1.725-.05-3.27-.99-4.182-.558-.54-.737-.606-1.807-.665-1.019-.055-1.273-.006-1.79.348-.892.612-1.236 1.179-1.427 2.352-.473 2.902.736 4.858 3 4.858.754 0 1.155-.1 1.591-.397zm21.687 1.108c-.907-.275-1.572-.799-1.918-1.513-.31-.643-.349-1.095-.349-4.11v-3.386h.883v3.183c0 3.376.115 3.994.865 4.663.533.475 2.237.591 2.988.203.989-.511 1.09-.947 1.09-4.686v-3.363h1.06v2.904c0 3.53-.178 4.5-.968 5.29-.832.833-2.42 1.187-3.65.815zm38.032-.034c-.643-.144-.75-.233-.75-.62 0-.386.058-.434.397-.333.666.2 2.546.329 3.026.208 1.218-.305 1.592-1.839.642-2.638a4.241 4.241 0 00-1.192-.657c-1.964-.636-2.695-1.415-2.696-2.874 0-.702.088-.941.501-1.354.729-.73 1.784-.97 3.265-.743.664.1 1.247.224 1.296.273.05.049.036.26-.03.468-.085.265-.21.344-.414.262-.616-.247-2.32-.305-2.824-.097-.531.22-.912.824-.912 1.447 0 .568.891 1.31 2.103 1.752 1.862.679 2.669 1.708 2.412 3.076-.298 1.589-2.378 2.378-4.824 1.83zM78.481 97.204v-4.502h4.944v.882h-3.884v3.001h3.707v.884h-3.707v3.354h3.884v.883h-4.944zm6.886-.022v-4.524l2.075.083c2.384.096 3.29.384 4.098 1.304.733.835 1.139 2.325.999 3.667-.297 2.838-1.941 3.994-5.68 3.994h-1.492zm4.326 3.31c1.248-.574 1.831-1.618 1.846-3.306.01-1.128-.262-1.956-.855-2.608-.671-.738-1.425-.994-2.928-.994h-1.33v7.24l1.28-.004c.862-.003 1.512-.11 1.987-.329zm22.925-3.292c1.681-4.226 1.82-4.504 2.214-4.459.376.044.607.519 2.163 4.449.958 2.42 1.741 4.426 1.741 4.458 0 .032-.218.058-.485.057-.442 0-.534-.124-1.022-1.368l-.537-1.368h-3.811l-.528 1.369c-.486 1.26-.568 1.368-1.028 1.368h-.499zm3.604.578c-.045-.122-.344-.976-.666-1.898-.322-.923-.631-1.732-.688-1.798-.057-.066-.429.788-.826 1.898l-.721 2.018h1.49c1.119 0 1.471-.055 1.41-.22zm5.516-.133v-4.06h-1.413c-1.388 0-1.412-.008-1.412-.442v-.441h6.709v.441c0 .434-.023.441-1.412.441h-1.413v8.122h-1.06zm5.297-.441v-4.502H128.094v9.004h-1.06zm13.418 0v-4.502h.574c.55.002.671.15 3.045 3.74l2.472 3.74.048-3.74.048-3.74h.875V101.705l-.574-.004c-.551-.003-.67-.15-3.085-3.84l-2.511-3.837-.005 3.84-.005 3.84h-.883zm10.125-.005c1.68-4.225 1.819-4.503 2.214-4.458.376.043.607.518 2.162 4.448.958 2.42 1.742 4.426 1.742 4.458 0 .032-.218.058-.485.058-.442 0-.534-.124-1.022-1.368l-.537-1.368h-3.811l-.528 1.368c-.487 1.26-.568 1.369-1.028 1.369h-.5zm3.603.578c-.044-.121-.343-.975-.665-1.898-.322-.922-.632-1.731-.689-1.797-.057-.066-.428.788-.825 1.898l-.722 2.018h1.491c1.118 0 1.471-.055 1.41-.22zm3.928-.573V92.7H159.168V100.822h3.884v.884h-4.943zm19.598-.023v-4.525l1.898.08c2.866.122 3.751.742 3.751 2.624 0 1.735-1.022 2.596-3.287 2.767l-1.303.099v3.48h-1.06zm4.192-.47c.385-.385.486-.65.486-1.273 0-.623-.1-.888-.486-1.273-.427-.427-.647-.494-1.81-.553l-1.323-.067v3.785l1.323-.066c1.163-.06 1.383-.127 1.81-.553zm3.576.47v-4.525l1.898.08c2.866.122 3.752.742 3.752 2.624 0 1.735-1.023 2.596-3.287 2.767l-1.304.099v3.48H185.475zm4.193-.47c.385-.385.486-.65.486-1.273 0-.623-.101-.888-.486-1.273-.427-.427-.648-.494-1.81-.553l-1.324-.067v3.785l1.324-.066c1.162-.06 1.383-.127 1.81-.553zm13.286.47v-4.524l1.986.079c2.878.115 3.664.658 3.664 2.534 0 .988-.383 1.692-1.162 2.137l-.579.331 1.224 1.984 1.224 1.984h-.58c-.55 0-.639-.097-1.648-1.81l-1.065-1.81-1.002-.053-1.002-.053v3.726h-1.06zm3.879-.328c.937-.484 1.128-2.131.33-2.853-.27-.245-.71-.343-1.755-.39l-1.394-.063v3.568h1.156c.676 0 1.366-.108 1.663-.262zm5.655.792v-4.06h-1.412c-1.39 0-1.413-.009-1.413-.442V92.7h6.71v.442c0 .434-.024.441-1.413.441h-1.412v8.122h-1.06zm14.654-.442v-4.502l.574.001c.551.001.672.15 3.046 3.74l2.472 3.74.047-3.74.048-3.741h.876v9.004l-.574-.003c-.552-.003-.67-.151-3.085-3.84l-2.512-3.837-.004 3.84-.005 3.84h-.882zm9.535 0v-4.502H237.736V101.706h-1.06zm5.296.442v-4.06h-1.412c-1.39 0-1.413-.009-1.413-.442V92.7h6.71v.442c0 .434-.024.441-1.413.441h-1.412v8.122h-1.06zm5.12-.442v-4.502h1.06V101.706h-1.06zm3.708 0v-4.502h4.944v.883h-3.885v3.002h3.708v.882h-3.708v3.355h3.885v.883H250.8z" fill="#393939"/></svg>