<?xml version="1.0" encoding="UTF-8"?> <svg xmlns="http://www.w3.org/2000/svg" xmlns:xlink="http://www.w3.org/1999/xlink" width="118" height="29" viewBox="0 0 118 29"><defs><path id="a" d="M.008.013H21.67v27.96H.008z"></path><path id="c" d="M0 .013h20.952v27.96H0z"></path></defs><g fill="none" fill-rule="evenodd"><path fill="#272727" d="M72.602.36h-1.66c-.85 0-1.443.593-1.443 1.442V23.68h-6.904c-4.27 0-6.002-.271-6.002-7.09V1.8c0-.848-.593-1.44-1.442-1.44h-1.613c-.849 0-1.49.618-1.49 1.44v14.79c0 9.69 3.508 11.395 10.88 11.395 2.651 0 6.283 0 9.746-.488l.08-.016c.855-.214 1.29-.705 1.29-1.458V1.802c0-.85-.593-1.442-1.442-1.442M92.53.412l-.113-.03c-.973-.205-3.632-.354-4.952-.354-4.666 0-7.133 1.957-7.133 5.66v20.62c0 .849.593 1.442 1.443 1.442h1.66c.85 0 1.443-.593 1.443-1.443V6.067c0-.913.23-1.734 3.015-1.734l4.122-.004c.404.049.79-.063 1.086-.314.324-.274.502-.673.502-1.123V1.849c0-.685-.391-1.209-1.073-1.437"></path><g transform="translate(95.309 .015)"><mask id="b" fill="#fff"><use xlink:href="#a"></use></mask><path fill="#272727" d="M10.982.013c-4.778 0-7.479.924-9.03 3.09C.335 5.367.009 8.94.009 13.97c0 9.875 1.525 14.004 10.974 14.004 1.135 0 5.014-.023 7.28-.299.88-.147 1.276-.823 1.276-1.428v-1.09c0-.85-.641-1.49-1.49-1.49h-7.066c-5.332 0-6.292-1.259-6.43-8.418v-2.315c.046-7.326 1.007-8.614 6.43-8.614 5.001 0 5.959 1.143 6.125 7.592H9.162v4.352h10.45c2.058 0 2.058-1.441 2.058-1.914v-1.391C21.522 2.917 19.124.013 10.982.013" mask="url(#b)"></path></g><path fill="#74BB11" d="M46.929 1.037c-.214-.454-.67-.725-1.223-.725h-2.134c-.62 0-1.082.25-1.326.7l-3.163 4.63 2.769 3.793 4.833-6.946c.531-.647.347-1.23.244-1.452"></path><path fill="#009CD9" d="M30.257.96l-.003-.004C29.772.313 29.131.313 28.92.313h-2.087c-.535 0-.972.245-1.202.674-.235.438-.185.966.14 1.455l7.732 10.738-8.89 12.423c-.311.467-.355.987-.12 1.425.23.429.668.674 1.202.674h2.134c.548 0 1.03-.285 1.271-.735l9.951-13.738L30.257.96z"></path><path fill="#EB2084" d="M48.013 25.975l-5.386-7.4-2.37 3.27 4.26 5.69.11.05c.184.079.36.117.538.117h1.811c.438 0 .81-.195 1.02-.534.216-.35.221-.783.017-1.193"></path><g><mask id="d" fill="#fff"><use xlink:href="#c"></use></mask><path fill="#272727" d="M16.407 16.074v7.243c-2.112.325-5.332.397-6.43.397-4.854 0-5.385-1.33-5.385-4.151 0-2.64.986-3.489 4.058-3.489h7.757zM9.741.014c-1.5 0-3.546.038-6.09.345l-.115.025c-.742.212-1.118.7-1.118 1.45v1.043c0 .89.553 1.442 1.442 1.442h5.88c4.736 0 6.667 1.285 6.667 4.436v3.062H8.65c-6.063 0-8.65 2.315-8.65 7.746 0 6.051 2.677 8.41 9.55 8.41 2.785 0 7.91-.217 9.804-.795 1.598-.445 1.598-1.667 1.598-2.07V8.47c0-5.692-3.667-8.458-11.211-8.458z" mask="url(#d)"></path></g></g></svg> 