<svg xmlns="http://www.w3.org/2000/svg" xmlns:xlink="http://www.w3.org/1999/xlink" version="1.1" x="0px" y="0px" width="173.995px" height="45px" viewBox="0 0 173.995 45" enable-background="new 0 0 173.995 45" xml:space="preserve"><style>.style0{fill:	#408D68;}.style1{fill:	#FFFFFF;}</style><path d="M45 22.501C45 34.9 34.9 45 22.5 45C10.073 45 0 34.9 0 22.501C0 10.1 10.1 0 22.5 0 C34.926 0 45 10.1 45 22.501z" class="style0"/><path d="M32.997 11.81H16.203c-5.188 0-7.964 4.394-9.175 7.757c-1.391 3.869-1.64 10.919-1.64 12.4 c0 0-0.003 0.801-0.003 0.807c0 0.2 0.2 0.4 0.4 0.355h3.17c0.199 0 0.356-0.16 0.356-0.355c0-0.07 0-0.77 0-0.77 c0-0.953-0.1-1.896 0.356-3.332c0.771-2.445 2.06-3.828 4.627-3.926h2.069c0 0 0 8 0 8.027c0 0.2 0.2 0.4 0.4 0.4 h3.526c0.194 0 0.354-0.16 0.354-0.355c0-0.07 0.002-3.521 0.002-3.521c0-0.357 0.047-0.709 0.163-1.02 c0.333-1.043 1.11-2.086 2.387-2.086c1.59 0 2.2 1.3 2.2 3.127c0 0-0.003 3.467-0.003 3.5c0 0.2 0.2 0.4 0.4 0.4 h3.681c0.197 0 0.357-0.156 0.357-0.355c0-0.006 0-3.713 0-3.713c0-0.354 0.071-0.732 0.164-1.039 c0.38-0.996 1.006-1.875 2.217-1.875c1.658 0 2.3 1.3 2.3 3.533c0 0 0 3.1 0 3.094c0 0.2 0.2 0.4 0.4 0.355h3.926 c0.197 0 0.364-0.16 0.364-0.355c0-0.006 0.002-15.484 0.002-15.484C38.95 14.2 36 11.8 33 11.81z M16.479 20.151h-0.938 c-0.979 0-1.601-0.539-1.601-1.349c0-0.917 0.666-1.314 1.633-1.314c0.442 0 0.8 0 0.9 0.084V20.151z" class="style1"/><g><path d="M52.227 11.905c1.472-0.282 3.602-0.47 5.826-0.47c3.038 0 5.1 0.5 6.5 1.691c1.159 1 1.8 2.4 1.8 4.3 c0 2.725-1.848 4.573-3.853 5.262v0.094c1.535 0.6 2.4 2 2.9 4.072c0.689 2.6 1.3 5.1 1.7 5.888h-3.946 c-0.313-0.626-0.846-2.349-1.409-4.979c-0.626-2.756-1.598-3.633-3.79-3.696h-1.941v8.676h-3.821V11.905z M56.048 21.208h2.286 c2.6 0 4.197-1.378 4.197-3.477c0-2.287-1.597-3.383-4.103-3.383c-1.221 0-2.004 0.094-2.38 0.188V21.208z"/><path d="M74.996 33.046c-4.291 0-7.642-2.944-7.642-7.861c0-5.011 3.289-8.081 7.893-8.081c4.542 0 7.6 3.2 7.6 7.8 c0 5.605-3.946 8.111-7.798 8.111H74.996z M75.121 30.259c2.192 0 3.727-2.131 3.727-5.23c0-2.381-1.065-5.137-3.696-5.137 c-2.725 0-3.821 2.662-3.821 5.199c0 2.9 1.5 5.2 3.8 5.168H75.121z"/><path d="M84.58 29.131c0.846 0.5 2.5 1.1 3.9 1.128c1.691 0 2.443-0.721 2.443-1.723c0-1.034-0.627-1.535-2.506-2.225 c-2.975-1.002-4.197-2.631-4.197-4.447c0-2.694 2.224-4.761 5.763-4.761c1.691 0 3.2 0.4 4.1 0.908l-0.783 2.7 c-0.626-0.375-1.879-0.877-3.226-0.877c-1.378 0-2.13 0.689-2.13 1.629c0 1 0.7 1.4 2.7 2.1 c2.788 1 4 2.4 4.1 4.636c0 2.787-2.16 4.792-6.201 4.792c-1.848 0-3.508-0.439-4.635-1.064L84.58 29.131z"/><path d="M99.581 26.156c0.094 2.8 2.3 3.9 4.7 3.946c1.785 0 3.037-0.282 4.228-0.688l0.563 2.6 c-1.314 0.563-3.131 0.971-5.324 0.971c-4.948 0-7.861-3.038-7.861-7.705c0-4.228 2.568-8.206 7.455-8.206 c4.947 0 6.6 4.1 6.6 7.422c0 0.721-0.062 1.285-0.125 1.629H99.581z M106.283 23.462c0.031-1.409-0.595-3.727-3.163-3.727 c-2.38 0-3.383 2.161-3.539 3.727H106.283z"/><path d="M111.764 21.99c0-1.754-0.062-3.226-0.125-4.541h3.352l0.188 2.286h0.094c0.689-1.19 2.35-2.631 4.887-2.631 c2.662 0 5.4 1.7 5.4 6.545v9.052h-3.852v-8.612c0-2.193-0.814-3.853-2.914-3.853c-1.534 0-2.599 1.096-3.006 2.3 c-0.125 0.312-0.188 0.783-0.188 1.221v8.989h-3.854V21.99z"/><path d="M129.178 32.702V20.331h-2.067v-2.881h2.067v-0.658c0-1.973 0.532-3.946 1.848-5.199c1.127-1.065 2.662-1.472 3.978-1.472 c1.034 0 1.8 0.2 2.4 0.376l-0.25 2.975c-0.438-0.156-0.939-0.282-1.66-0.282c-1.91 0-2.537 1.597-2.537 3.477v0.783h3.352 v2.881h-3.32v12.371H129.178z"/><path d="M140.828 26.156c0.094 2.8 2.3 3.9 4.7 3.946c1.785 0 3.039-0.282 4.229-0.688l0.564 2.6 c-1.316 0.563-3.133 0.971-5.324 0.971c-4.949 0-7.861-3.038-7.861-7.705c0-4.228 2.568-8.206 7.453-8.206 c4.949 0 6.6 4.1 6.6 7.422c0 0.721-0.062 1.285-0.126 1.629H140.828z M147.53 23.462c0.031-1.409-0.595-3.727-3.163-3.727 c-2.381 0-3.383 2.161-3.539 3.727H147.53z"/><path d="M153.011 10.434h3.853v22.268h-3.853V10.434z"/><path d="M173.869 10.434v17.977c0 1.6 0.1 3.3 0.1 4.291h-3.414l-0.188-2.411h-0.063c-0.908 1.691-2.756 2.756-4.947 2.8 c-3.665 0-6.547-3.102-6.547-7.799c-0.031-5.105 3.164-8.143 6.828-8.143c2.099 0 3.6 0.8 4.3 1.973h0.062v-8.644H173.869z M170.018 23.807c0-0.313-0.031-0.721-0.094-1.034c-0.345-1.472-1.566-2.693-3.32-2.693c-2.475 0-3.852 2.192-3.852 5 c0 2.8 1.4 4.9 3.8 4.854c1.566 0 2.944-1.064 3.32-2.725c0.094-0.344 0.125-0.72 0.125-1.127V23.807z"/></g></svg>